<svg width="26" height="25" viewBox="0 0 26 25" fill="none" xmlns="http://www.w3.org/2000/svg">
<path d="M20.3567 19.1407C20.464 18.7625 20.8566 18.5432 21.2337 18.6508C21.6107 18.7584 21.8294 19.1522 21.7221 19.5303C21.3771 20.7461 20.4134 21.6991 19.1682 22.0113L7.6301 24.9038C5.67968 25.3557 3.76645 24.1733 3.32346 22.2483L0.34163 9.29073C-0.0934648 7.40002 1.06187 5.50825 2.93905 5.03764L5.62079 4.36532C6.0011 4.26998 6.38649 4.50186 6.48157 4.88324C6.57665 5.26463 6.34542 5.6511 5.9651 5.74644L3.28337 6.41876C2.15705 6.70113 1.46386 7.83619 1.72491 8.97061L4.70674 21.9282C4.97252 23.0831 6.12035 23.7925 7.29813 23.5197L18.8239 20.6301C19.5715 20.4427 20.1494 19.8713 20.3567 19.1407ZM23.8304 14.6532V3.55906C23.8304 2.37969 22.877 1.42363 21.7009 1.42363H8.92416C7.7481 1.42363 6.79471 2.37969 6.79471 3.55906V11.806L9.84188 8.75024C10.1191 8.47226 10.5685 8.47226 10.8457 8.75024L16.1128 14.0321L19.8875 11.5086C20.1691 11.3203 20.5439 11.3576 20.7832 11.5975L23.8304 14.6532ZM23.8126 16.6487L20.1908 13.0168L16.4161 15.5403C16.1346 15.7286 15.7597 15.6913 15.5204 15.4514L10.3438 10.2602L6.79471 13.8193V16.3717C6.79471 17.5511 7.7481 18.5071 8.92416 18.5071H21.7009C22.7834 18.5071 23.6772 17.6972 23.8126 16.6487ZM8.92416 0H21.7009C23.661 0 25.25 1.59345 25.25 3.55906V16.3717C25.25 18.3373 23.661 19.9308 21.7009 19.9308H8.92416C6.96405 19.9308 5.37507 18.3373 5.37507 16.3717V3.55906C5.37507 1.59345 6.96405 0 8.92416 0ZM18.1518 2.84725H20.9911C21.7751 2.84725 22.4107 3.48463 22.4107 4.27088V7.11813C22.4107 7.90438 21.7751 8.54176 20.9911 8.54176H18.1518C17.3678 8.54176 16.7322 7.90438 16.7322 7.11813V4.27088C16.7322 3.48463 17.3678 2.84725 18.1518 2.84725ZM18.1518 4.27088V7.11813H20.9911V4.27088H18.1518Z" fill="white"/>
</svg>
