<svg width="23" height="25" viewBox="0 0 23 25" fill="none" xmlns="http://www.w3.org/2000/svg">
<path d="M22.6875 17.5V1.25C22.6875 0.46875 22.2188 0 21.4375 0H5.5C2.84375 0 0.8125 2.03125 0.8125 4.6875V20.3125C0.8125 22.9688 2.84375 25 5.5 25H21.4375C22.0625 25 22.6875 24.5312 22.6875 23.75V22.9688C22.6875 22.6562 22.5312 22.3438 22.2188 22.0312C22.0625 21.25 22.0625 19.0625 22.2188 18.4375C22.5312 18.2812 22.6875 17.9688 22.6875 17.5ZM15.5137 7.12012C15.543 7.06104 15.5996 7.03125 15.6562 7.03125C15.7129 7.03125 15.7695 7.06104 15.7988 7.12012L16.3447 8.22607L17.5654 8.40332C17.6958 8.42236 17.748 8.58252 17.6538 8.6748L16.7705 9.53564L16.979 10.751C16.9966 10.854 16.915 10.9375 16.8223 10.9375C16.7979 10.9375 16.7725 10.9316 16.748 10.9189L15.6562 10.3452L14.5645 10.9189C14.54 10.9316 14.5146 10.9375 14.4902 10.9375C14.3975 10.9375 14.3159 10.854 14.3335 10.751L14.542 9.53564L13.6587 8.6748C13.564 8.58252 13.6162 8.42236 13.7471 8.40332L14.9673 8.22607L15.5137 7.12012ZM12.687 3.75049C13.3545 3.75049 14.0181 3.87207 14.6587 4.1123C14.7071 4.11234 14.7549 4.123 14.7988 4.14355C14.8426 4.16409 14.8814 4.19401 14.9125 4.23119C14.9435 4.26837 14.966 4.31191 14.9783 4.35873C14.9907 4.40555 14.9926 4.45451 14.984 4.50216C14.9753 4.54981 14.9563 4.59497 14.9283 4.63447C14.9003 4.67397 14.864 4.70684 14.8218 4.73076C14.7797 4.75468 14.7329 4.76906 14.6846 4.77289C14.6364 4.77672 14.5878 4.76991 14.5425 4.75293C14.5098 4.75293 14.3916 4.74268 14.3408 4.74268C11.7866 4.74268 9.70898 6.82031 9.70898 9.37451C9.70898 11.9282 11.7866 14.0063 14.3408 14.0063C14.3911 14.0063 14.5107 13.9961 14.5425 13.9961C14.7344 13.9961 14.8745 14.1494 14.8745 14.3271C14.8745 14.4727 14.7798 14.5962 14.6489 14.6406C14.0107 14.8784 13.3506 14.999 12.6865 14.999C9.58545 14.9995 7.0625 12.4761 7.0625 9.375C7.0625 6.27344 9.58545 3.75049 12.687 3.75049ZM19.4062 21.875H5.5C4.5625 21.875 3.9375 21.25 3.9375 20.3125C3.9375 19.375 4.71875 18.75 5.5 18.75H19.4062V21.875Z" fill="white"/>
</svg>
