<svg width="35" height="25" viewBox="0 0 35 25" fill="none" xmlns="http://www.w3.org/2000/svg">
<path d="M32.7565 0.00303046C29.5218 0.176579 23.0925 0.808272 19.1235 3.10514C18.8496 3.26362 18.6943 3.54542 18.6943 3.84007V24.1452C18.6943 24.7897 19.4399 25.1971 20.0685 24.898C24.1521 22.9549 30.0578 22.4248 32.9779 22.2797C33.9749 22.23 34.7499 21.4745 34.7499 20.5688V1.71619C34.7505 0.727915 33.8438 -0.055005 32.7565 0.00303046ZM16.3769 3.10514C12.4085 0.808272 5.97917 0.177137 2.74445 0.00303046C1.65715 -0.055005 0.750488 0.727915 0.750488 1.71619V20.5693C0.750488 21.4756 1.52552 22.2312 2.5225 22.2803C5.44379 22.4254 11.3525 22.956 15.436 24.9002C16.0629 25.1988 16.806 24.792 16.806 24.1491V3.83002C16.806 3.53482 16.6514 3.26418 16.3769 3.10514Z" fill="white"/>
</svg>
