<svg width="26" height="26" viewBox="0 0 26 26" fill="none" xmlns="http://www.w3.org/2000/svg">
<path d="M23.6668 11.4375V10.6224C23.6668 8.60194 23.6668 7.59173 23.0566 6.96405C22.4464 6.33639 21.4643 6.33639 19.5002 6.33639H17.335C16.3793 6.33639 16.3714 6.33453 15.5121 5.90451L12.0417 4.16784C10.5927 3.44274 9.8682 3.08019 9.09639 3.10539C8.32457 3.13058 7.62388 3.53966 6.22251 4.35781L4.94348 5.10454C3.91411 5.7055 3.39942 6.00599 3.11645 6.50586C2.8335 7.00575 2.8335 7.6145 2.8335 8.832V17.3913C2.8335 18.991 2.8335 19.7909 3.19002 20.2361C3.42726 20.5323 3.7597 20.7314 4.12725 20.7975C4.6796 20.8967 5.35587 20.5019 6.70836 19.7122C7.62679 19.176 8.51069 18.6192 9.6094 18.7702C10.53 18.8967 11.3856 19.4776 12.2085 19.8894" stroke="white" stroke-width="1.5" stroke-linecap="round" stroke-linejoin="round"/>
<path d="M9.0835 3.10416V18.7292" stroke="white" stroke-width="1.5" stroke-linejoin="round"/>
<path d="M16.375 6.22916V10.3958" stroke="white" stroke-width="1.5" stroke-linecap="round" stroke-linejoin="round"/>
<path d="M18.9795 13C21.5163 13 23.667 15.1005 23.667 17.6489C23.667 20.2377 21.4813 22.0546 19.4623 23.2899C19.3152 23.373 19.1488 23.4167 18.9795 23.4167C18.8102 23.4167 18.6438 23.373 18.4967 23.2899C16.4815 22.0425 14.292 20.2467 14.292 17.6489C14.292 15.1005 16.4427 13 18.9795 13Z" stroke="white" stroke-width="1.5"/>
<path d="M18.9795 17.6875H18.9889" stroke="white" stroke-width="2" stroke-linecap="round" stroke-linejoin="round"/>
</svg>
