<svg width="26" height="25" viewBox="0 0 26 25" fill="none" xmlns="http://www.w3.org/2000/svg">
<path d="M5.41309 5.07812H21.0381C21.2206 5.07803 21.4029 5.08961 21.584 5.11278C21.5226 4.68201 21.3746 4.26812 21.149 3.89608C20.9234 3.52404 20.6247 3.20154 20.271 2.94804C19.9174 2.69454 19.5161 2.51528 19.0913 2.42107C18.6665 2.32687 18.227 2.31966 17.7993 2.39989L4.94922 4.59374H4.93457C4.12797 4.74799 3.41068 5.20435 2.9292 5.86962C3.65459 5.35367 4.52292 5.07697 5.41309 5.07812Z" fill="white"/>
<path d="M21.0381 6.25H5.41309C4.58456 6.2509 3.79023 6.58044 3.20438 7.16629C2.61852 7.75215 2.28899 8.54648 2.28809 9.375V18.75C2.28899 19.5785 2.61852 20.3729 3.20438 20.9587C3.79023 21.5446 4.58456 21.8741 5.41309 21.875H21.0381C21.8666 21.8741 22.6609 21.5446 23.2468 20.9587C23.8327 20.3729 24.1622 19.5785 24.1631 18.75V9.375C24.1622 8.54648 23.8327 7.75215 23.2468 7.16629C22.6609 6.58044 21.8666 6.2509 21.0381 6.25ZM18.7188 15.625C18.4097 15.625 18.1076 15.5334 17.8507 15.3617C17.5937 15.19 17.3934 14.946 17.2752 14.6604C17.1569 14.3749 17.126 14.0608 17.1863 13.7577C17.2466 13.4546 17.3954 13.1762 17.6139 12.9576C17.8324 12.7391 18.1108 12.5903 18.4139 12.53C18.717 12.4697 19.0312 12.5007 19.3167 12.6189C19.6022 12.7372 19.8462 12.9375 20.0179 13.1944C20.1896 13.4514 20.2812 13.7535 20.2812 14.0625C20.2812 14.4769 20.1166 14.8743 19.8236 15.1674C19.5306 15.4604 19.1332 15.625 18.7188 15.625Z" fill="white"/>
<path d="M2.3125 12.6709V7.8125C2.3125 6.75439 2.89844 4.98047 4.93213 4.59619C6.6582 4.27246 8.36719 4.27246 8.36719 4.27246C8.36719 4.27246 9.49023 5.05371 8.5625 5.05371C7.63477 5.05371 7.65918 6.25 8.5625 6.25C9.46582 6.25 8.5625 7.39746 8.5625 7.39746L4.9248 11.5234L2.3125 12.6709Z" fill="white"/>
</svg>
