<svg width="34" height="25" viewBox="0 0 34 25" fill="none" xmlns="http://www.w3.org/2000/svg">
<path fill-rule="evenodd" clip-rule="evenodd" d="M4.75016 0H29.7502C32.0513 0 33.9168 1.86548 33.9168 4.16667V20.8333C33.9168 23.1345 32.0513 25 29.7502 25H4.75016C2.44898 25 0.583496 23.1345 0.583496 20.8333V4.16667C0.583496 1.86548 2.44898 0 4.75016 0ZM4.75016 2.08333C3.59957 2.08333 2.66683 3.01607 2.66683 4.16667V20.8333C2.66683 21.9839 3.59957 22.9167 4.75016 22.9167H29.7502C30.9008 22.9167 31.8335 21.9839 31.8335 20.8333V4.16667C31.8335 3.01607 30.9008 2.08333 29.7502 2.08333H4.75016ZM4.75016 14.5833H19.3335V16.6667H4.75016V14.5833ZM4.75016 18.75H19.3335V20.8333H4.75016V18.75ZM23.5002 4.16667H27.6668C28.8174 4.16667 29.7502 5.09941 29.7502 6.25V10.4167C29.7502 11.5673 28.8174 12.5 27.6668 12.5H23.5002C22.3496 12.5 21.4168 11.5673 21.4168 10.4167V6.25C21.4168 5.09941 22.3496 4.16667 23.5002 4.16667ZM23.5002 6.25V10.4167H27.6668V6.25H23.5002Z" fill="white"/>
</svg>
