<svg width="27" height="25" viewBox="0 0 27 25" fill="none" xmlns="http://www.w3.org/2000/svg">
<path d="M25.2283 10.1312C24.9034 9.5 24.5011 8.8875 24.0305 8.31125L21.5133 9.71C21.8747 10.15 22.1829 10.6188 22.4303 11.1038C22.6854 11.6013 22.8812 12.12 23.0118 12.6412C23.1454 13.1825 23.2137 13.7388 23.2137 14.2963C23.2137 14.8538 23.1454 15.4125 23.0118 15.9513C22.8812 16.4737 22.6869 16.99 22.4288 17.49C22.1829 17.9725 21.8747 18.4412 21.5133 18.88C21.1581 19.3137 20.7467 19.7225 20.2943 20.0962C19.8434 20.4675 19.3469 20.8037 18.8171 21.0987C18.2827 21.3962 17.7149 21.65 17.1259 21.8538C16.5262 22.0625 15.8977 22.2237 15.26 22.3325C13.9484 22.5512 12.5486 22.5512 11.243 22.3325C10.6023 22.2237 9.97229 22.0625 9.3711 21.8525C8.78357 21.6488 8.21578 21.395 7.68139 21.0975C7.15459 20.8062 6.65967 20.4687 6.20726 20.0975C5.75333 19.7225 5.34343 19.3125 4.98818 18.8812C4.62837 18.4425 4.32019 17.9737 4.06969 17.4875C3.81616 16.9925 3.62183 16.4762 3.48975 15.95C3.35615 15.4113 3.28784 14.855 3.28784 14.2963C3.28784 13.7375 3.35615 13.1812 3.49127 12.6412C3.62183 12.1163 3.81616 11.5988 4.06969 11.1038C4.32019 10.6163 4.62989 10.1475 4.98818 9.71125C5.34343 9.2775 5.75333 8.86875 6.20574 8.49625C6.65512 8.125 7.15155 7.7875 7.68139 7.49375C8.21275 7.19875 8.78206 6.94375 9.37262 6.7375C9.97229 6.52875 10.6023 6.3675 11.24 6.26C11.4024 6.2325 11.5679 6.22 11.7318 6.19875V10L19.3226 5L11.7318 0V3.6725C11.3629 3.70875 10.994 3.75 10.6312 3.81125C9.79619 3.9525 8.97334 4.1625 8.18997 4.43625C7.41723 4.705 6.67333 5.0375 5.98105 5.42375C5.29181 5.80625 4.64507 6.245 4.05754 6.72875C3.4685 7.21375 2.93562 7.74625 2.47107 8.31125C2.00196 8.8825 1.59964 9.49375 1.27172 10.13C0.939245 10.7775 0.684194 11.4537 0.51416 12.14C0.338053 12.8438 0.25 13.57 0.25 14.2975C0.25 15.025 0.339571 15.75 0.51416 16.4538C0.685712 17.1425 0.940763 17.8188 1.27172 18.4625C1.59813 19.0988 2.00196 19.7113 2.47107 20.2825C2.93411 20.845 3.46698 21.3775 4.05754 21.8675C4.64811 22.3525 5.29333 22.7913 5.97802 23.1713C6.67485 23.56 7.41875 23.8925 8.18846 24.1587C8.97183 24.4312 9.79315 24.6425 10.6312 24.7837C11.4874 24.9263 12.3679 25 13.25 25C14.1321 25 15.0126 24.9263 15.8719 24.7825C16.7084 24.64 17.5297 24.43 18.307 24.1587C19.0767 23.8925 19.8221 23.56 20.5189 23.1713C21.2067 22.7888 21.8534 22.35 22.444 21.8637C23.033 21.3775 23.5659 20.8463 24.0305 20.2812C24.5041 19.7038 24.9049 19.0913 25.2268 18.4625C25.5608 17.8125 25.8173 17.1362 25.9858 16.4525C26.1604 15.7487 26.25 15.0225 26.25 14.2963C26.25 13.5712 26.1604 12.845 25.9858 12.14C25.8158 11.4575 25.5592 10.7812 25.2283 10.1312Z" fill="white"/>
</svg>
