<svg width="20" height="25" viewBox="0 0 20 25" fill="none" xmlns="http://www.w3.org/2000/svg">
<path d="M17.2812 3.125H13.375C13.375 1.40137 11.9736 0 10.25 0C8.52637 0 7.125 1.40137 7.125 3.125H3.21875C1.9248 3.125 0.875 4.1748 0.875 5.46875V22.6562C0.875 23.9502 1.9248 25 3.21875 25H17.2812C18.5752 25 19.625 23.9502 19.625 22.6562V5.46875C19.625 4.1748 18.5752 3.125 17.2812 3.125ZM5.5625 20.7031C4.91309 20.7031 4.39062 20.1807 4.39062 19.5312C4.39062 18.8818 4.91309 18.3594 5.5625 18.3594C6.21191 18.3594 6.73438 18.8818 6.73438 19.5312C6.73438 20.1807 6.21191 20.7031 5.5625 20.7031ZM5.5625 16.0156C4.91309 16.0156 4.39062 15.4932 4.39062 14.8438C4.39062 14.1943 4.91309 13.6719 5.5625 13.6719C6.21191 13.6719 6.73438 14.1943 6.73438 14.8438C6.73438 15.4932 6.21191 16.0156 5.5625 16.0156ZM5.5625 11.3281C4.91309 11.3281 4.39062 10.8057 4.39062 10.1562C4.39062 9.50684 4.91309 8.98438 5.5625 8.98438C6.21191 8.98438 6.73438 9.50684 6.73438 10.1562C6.73438 10.8057 6.21191 11.3281 5.5625 11.3281ZM10.25 1.95312C10.8994 1.95312 11.4219 2.47559 11.4219 3.125C11.4219 3.77441 10.8994 4.29688 10.25 4.29688C9.60059 4.29688 9.07812 3.77441 9.07812 3.125C9.07812 2.47559 9.60059 1.95312 10.25 1.95312ZM16.5 19.9219C16.5 20.1367 16.3242 20.3125 16.1094 20.3125H9.07812C8.86328 20.3125 8.6875 20.1367 8.6875 19.9219V19.1406C8.6875 18.9258 8.86328 18.75 9.07812 18.75H16.1094C16.3242 18.75 16.5 18.9258 16.5 19.1406V19.9219ZM16.5 15.2344C16.5 15.4492 16.3242 15.625 16.1094 15.625H9.07812C8.86328 15.625 8.6875 15.4492 8.6875 15.2344V14.4531C8.6875 14.2383 8.86328 14.0625 9.07812 14.0625H16.1094C16.3242 14.0625 16.5 14.2383 16.5 14.4531V15.2344ZM16.5 10.5469C16.5 10.7617 16.3242 10.9375 16.1094 10.9375H9.07812C8.86328 10.9375 8.6875 10.7617 8.6875 10.5469V9.76562C8.6875 9.55078 8.86328 9.375 9.07812 9.375H16.1094C16.3242 9.375 16.5 9.55078 16.5 9.76562V10.5469Z" fill="white"/>
</svg>
