<svg width="23" height="26" viewBox="0 0 23 26" fill="none" xmlns="http://www.w3.org/2000/svg">
<path d="M22.5735 17.1808V1.89329C22.5726 1.68454 22.5258 1.47869 22.4366 1.29102C22.3475 1.10335 22.2182 0.938693 22.0585 0.809268C21.9011 0.678659 21.7171 0.585894 21.5201 0.537793C21.3231 0.489692 21.118 0.487478 20.9201 0.531313L8.72272 3.31086C8.42161 3.3805 8.1527 3.55345 7.96047 3.80112C7.76825 4.04878 7.66422 4.35631 7.66561 4.67284V16.2636C6.74042 15.8157 5.69854 15.6875 4.69628 15.8982C3.69401 16.109 2.78541 16.6473 2.10678 17.4325C1.42814 18.2176 1.01606 19.2072 0.932363 20.2529C0.848662 21.2985 1.09785 22.3438 1.64255 23.2319C2.18724 24.1201 2.99808 24.8031 3.95341 25.1787C4.90874 25.5542 5.95705 25.6019 6.94109 25.3147C7.92513 25.0276 8.79183 24.4209 9.41117 23.5858C10.0305 22.7507 10.3691 21.7322 10.3761 20.6831C10.3902 20.4424 10.3902 20.2011 10.3761 19.9604V5.78466L19.863 3.63051V13.484C18.9373 13.0358 17.8948 12.9078 16.892 13.119C15.8892 13.3302 14.9804 13.8693 14.3019 14.6554C13.6234 15.4415 13.2119 16.4321 13.1293 17.4784C13.0466 18.5248 13.2972 19.5704 13.8434 20.4582C14.3897 21.346 15.2021 22.0281 16.1586 22.4021C17.1151 22.7761 18.1641 22.8218 19.1481 22.5323C20.1321 22.2428 20.998 21.6337 21.6156 20.7966C22.2333 19.9594 22.5694 18.9394 22.5735 17.8896C22.5864 17.6535 22.5864 17.4169 22.5735 17.1808Z" fill="white"/>
</svg>
