<svg width="30" height="25" viewBox="0 0 30 25" fill="none" xmlns="http://www.w3.org/2000/svg">
<path d="M7.45817 0C5.45296 0 3.6665 0.843108 2.31755 2.16276C1.00505 3.4824 0.166504 5.27859 0.166504 7.33138C0.166504 9.34751 1.00505 11.1437 2.31755 12.5L14.7498 25L27.1821 12.5C28.4946 11.1804 29.3332 9.38416 29.3332 7.33138C29.3332 5.31525 28.4946 3.51906 27.1821 2.16276C25.8696 0.843108 24.0832 0 22.0415 0C20.0363 0 18.2498 0.843108 16.9009 2.16276C15.5884 3.4824 14.7498 5.27859 14.7498 7.33138C14.7498 5.31525 13.9113 3.51906 12.5988 2.16276C11.2863 0.843108 9.49984 0 7.45817 0Z" fill="white"/>
</svg>
